<svg id="Layer_1" data-name="Layer 1" xmlns="http://www.w3.org/2000/svg" viewBox="0 0 192.24 41.99"><defs><style>.cls-1,.cls-2{fill:#63737a;}.cls-2{stroke:#63737a;stroke-miterlimit:10;stroke-width:0.31px;}.cls-3{fill:#ea630a;}</style></defs><title>milner-smeaton-logo</title><polyline class="cls-1" points="61.66 8.18 61.66 0.38 55.13 0.38 55.13 16.23"/><polyline class="cls-1" points="52.16 19.19 52.16 0.38 44.98 0.38 44.98 28.17"/><polyline class="cls-1" points="41.9 31.23 41.9 14.28 34.22 14.28 34.22 40.84"/><path class="cls-2" d="M104.92,33.69h1.65V50.54h-1.65V33.69Z" transform="translate(-4.13 -33.47)"/><path class="cls-2" d="M120.2,33.69h1.65V49.05h7.81v1.49H120.2V33.69Z" transform="translate(-4.13 -33.47)"/><path class="cls-2" d="M139.88,33.69h1.61l8.61,12.13c0.57,0.84,1.39,2.28,1.39,2.28h0s-0.14-1.39-.14-2.28V33.69H153V50.54h-1.61l-8.61-12.13c-0.58-.84-1.39-2.28-1.39-2.28h0s0.14,1.39.14,2.28V50.54h-1.65V33.69Z" transform="translate(-4.13 -33.47)"/><path class="cls-2" d="M165.2,33.69h9.49v1.49h-7.84v6.14h6.4v1.49h-6.4v6.26h8.27v1.49H165.2V33.69Z" transform="translate(-4.13 -33.47)"/><path class="cls-2" d="M184,33.69h5a7.49,7.49,0,0,1,3.16.46,4.5,4.5,0,0,1,2.54,4.34A4.5,4.5,0,0,1,191.45,43v0a6.55,6.55,0,0,1,.43.67l3.67,6.78h-1.89l-3.81-7.09h-4.24v7.09H184V33.69ZM189.61,42a3.15,3.15,0,0,0,3.33-3.43,3.13,3.13,0,0,0-1.53-2.95,4.85,4.85,0,0,0-2.4-.41h-3.4V42h4Z" transform="translate(-4.13 -33.47)"/><path class="cls-2" d="M75.64,71.87A6.58,6.58,0,0,0,80,73.72c1.85,0,3.36-1.1,3.36-2.92,0-4.24-8.41-3.16-8.41-8.39,0-2.42,2.13-4.53,5.25-4.53a6.54,6.54,0,0,1,4.51,1.63l-0.82,1.39a5.75,5.75,0,0,0-3.69-1.44c-2.16,0-3.55,1.41-3.55,2.9,0,4,8.41,2.85,8.41,8.39,0,2.52-1.94,4.55-5.11,4.55a7.43,7.43,0,0,1-5.35-2.16Z" transform="translate(-4.13 -33.47)"/><path class="cls-2" d="M113.93,58.16h9.49v1.49h-7.84v6.14H122v1.49h-6.4v6.26h8.27V75h-9.92V58.16Z" transform="translate(-4.13 -33.47)"/><path class="cls-2" d="M138,69.64h-6.78L129.29,75h-1.75l6.18-16.85h1.77L141.69,75h-1.75Zm-3.4-9.73s-0.36,1.39-.65,2.18l-2.25,6.11h5.8l-2.21-6.11c-0.29-.79-0.65-2.18-0.65-2.18h0Z" transform="translate(-4.13 -33.47)"/><path class="cls-2" d="M149.21,59.65h-6.06V58.16H156.9v1.49h-6V75h-1.65V59.65Z" transform="translate(-4.13 -33.47)"/><path class="cls-2" d="M168.67,57.87a8.52,8.52,0,0,1,8.58,8.6,8.58,8.58,0,1,1-17.16,0A8.52,8.52,0,0,1,168.67,57.87Zm0,15.89a7,7,0,0,0,6.86-7.29,6.86,6.86,0,1,0-13.71,0A7,7,0,0,0,168.67,73.77Z" transform="translate(-4.13 -33.47)"/><path class="cls-2" d="M183.05,58.16h1.61l8.61,12.13c0.58,0.84,1.39,2.28,1.39,2.28h0s-0.14-1.39-.14-2.28V58.16h1.65V75h-1.61L186,62.88c-0.58-.84-1.39-2.28-1.39-2.28h0s0.14,1.39.14,2.28V75h-1.65V58.16Z" transform="translate(-4.13 -33.47)"/><path class="cls-2" d="M78.54,38.34l5.81,8.17,1-1.39-8.15-11.5H75.59V50.47h1.65V38.34c0-.89-0.14-2.28-0.14-2.28h0S78,37.51,78.54,38.34Z" transform="translate(-4.13 -33.47)"/><path class="cls-2" d="M91.59,33.62L83.41,45.24l1,1.42,5.84-8.32c0.58-.84,1.39-2.28,1.39-2.28h0s-0.14,1.39-.14,2.28V50.47h1.65V33.62H91.59Z" transform="translate(-4.13 -33.47)"/><path class="cls-2" d="M93.16,62.89L99,71.06l1-1.39-8.15-11.5H90.21V75h1.65V62.89c0-.89-0.14-2.28-0.14-2.28h0S92.58,62.05,93.16,62.89Z" transform="translate(-4.13 -33.47)"/><path class="cls-2" d="M106.21,58.17L98,69.79l1,1.42,5.84-8.32c0.58-.84,1.39-2.28,1.39-2.28h0s-0.14,1.39-.14,2.28V75h1.65V58.17h-1.61Z" transform="translate(-4.13 -33.47)"/><polygon class="cls-3" points="7.94 31.14 7.94 0.38 0 0.38 0 27.47 7.94 31.14"/><polygon class="cls-3" points="19.33 36.41 19.33 0.38 11.39 0.38 11.39 32.74 19.33 36.41"/><polygon class="cls-3" points="30.93 41.77 30.93 0.38 22.99 0.38 22.99 38.1 30.93 41.77"/></svg>